<mxfile host="65bd71144e">
    <diagram id="HNQcjoUEhN4oKcxVeBbH" name="mysql回滚恢复">
        <mxGraphModel dx="1268" dy="700" grid="1" gridSize="10" guides="1" tooltips="1" connect="1" arrows="1" fold="1" page="1" pageScale="1" pageWidth="827" pageHeight="1169" math="0" shadow="0">
            <root>
                <mxCell id="0"/>
                <mxCell id="1" parent="0"/>
                <mxCell id="5" value="" style="edgeStyle=none;html=1;" edge="1" parent="1" source="2" target="3">
                    <mxGeometry relative="1" as="geometry"/>
                </mxCell>
                <mxCell id="6" style="edgeStyle=none;html=1;dashed=1;" edge="1" parent="1" source="2" target="4">
                    <mxGeometry relative="1" as="geometry"/>
                </mxCell>
                <mxCell id="2" value="db 主" style="rounded=1;whiteSpace=wrap;html=1;" vertex="1" parent="1">
                    <mxGeometry x="210" y="130" width="120" height="60" as="geometry"/>
                </mxCell>
                <mxCell id="3" value="db 从库" style="rounded=1;whiteSpace=wrap;html=1;" vertex="1" parent="1">
                    <mxGeometry x="210" y="270" width="120" height="60" as="geometry"/>
                </mxCell>
                <mxCell id="4" value="db 从库&lt;br&gt;（延时1小时）" style="rounded=1;whiteSpace=wrap;html=1;" vertex="1" parent="1">
                    <mxGeometry x="420" y="240" width="120" height="60" as="geometry"/>
                </mxCell>
            </root>
        </mxGraphModel>
    </diagram>
</mxfile>